<mxfile host="app.diagrams.net" modified="2023-11-16T20:06:53.131Z" agent="Mozilla/5.0 (Windows NT 10.0; Win64; x64) AppleWebKit/537.36 (KHTML, like Gecko) Chrome/119.0.0.0 Safari/537.36" etag="xgzbeXHP7O3zLGOyGtTE" version="22.1.2" type="github">
  <diagram id="C5RBs43oDa-KdzZeNtuy" name="Page-1">
    <mxGraphModel dx="1737" dy="927" grid="1" gridSize="10" guides="1" tooltips="1" connect="1" arrows="1" fold="1" page="1" pageScale="1" pageWidth="827" pageHeight="1169" math="0" shadow="0">
      <root>
        <mxCell id="WIyWlLk6GJQsqaUBKTNV-0" />
        <mxCell id="WIyWlLk6GJQsqaUBKTNV-1" parent="WIyWlLk6GJQsqaUBKTNV-0" />
        <UserObject label="" link="data:page/id,C5RBs43oDa-KdzZeNtuy" linkTarget="_blank" id="IUQcIr59dXevHf2B69qS-1">
          <mxCell style="group" vertex="1" connectable="0" parent="WIyWlLk6GJQsqaUBKTNV-1">
            <mxGeometry x="110" y="75" width="370" height="510" as="geometry" />
          </mxCell>
        </UserObject>
        <mxCell id="WIyWlLk6GJQsqaUBKTNV-3" value="&lt;font style=&quot;font-size: 48px;&quot;&gt;teal::init&lt;/font&gt;" style="rounded=1;whiteSpace=wrap;html=1;fontSize=12;glass=0;strokeWidth=1;shadow=0;" parent="IUQcIr59dXevHf2B69qS-1" vertex="1">
          <mxGeometry width="370" height="320" as="geometry" />
        </mxCell>
        <mxCell id="h1vEIMaagYIO03FBJauo-0" value="&lt;font style=&quot;font-size: 36px;&quot;&gt;data&lt;/font&gt;" style="strokeWidth=2;html=1;shape=mxgraph.flowchart.database;whiteSpace=wrap;fillColor=#dae8fc;strokeColor=#6c8ebf;" parent="IUQcIr59dXevHf2B69qS-1" vertex="1">
          <mxGeometry x="30" y="197.5" width="120" height="95" as="geometry" />
        </mxCell>
        <mxCell id="h1vEIMaagYIO03FBJauo-3" value="&lt;font style=&quot;font-size: 24px;&quot;&gt;modules&lt;/font&gt;" style="shape=parallelogram;html=1;strokeWidth=2;perimeter=parallelogramPerimeter;whiteSpace=wrap;rounded=1;arcSize=12;size=0.23;fillColor=#ffe6cc;strokeColor=#d79b00;" parent="IUQcIr59dXevHf2B69qS-1" vertex="1">
          <mxGeometry x="200" y="197.5" width="150" height="90" as="geometry" />
        </mxCell>
        <mxCell id="h1vEIMaagYIO03FBJauo-6" value="&lt;font style=&quot;font-size: 48px;&quot;&gt;&amp;nbsp;teal app&lt;/font&gt;" style="ellipse;whiteSpace=wrap;html=1;align=center;newEdgeStyle={&quot;edgeStyle&quot;:&quot;entityRelationEdgeStyle&quot;,&quot;startArrow&quot;:&quot;none&quot;,&quot;endArrow&quot;:&quot;none&quot;,&quot;segment&quot;:10,&quot;curved&quot;:1,&quot;sourcePerimeterSpacing&quot;:0,&quot;targetPerimeterSpacing&quot;:0};treeFolding=1;treeMoving=1;fillColor=#b1ddf0;strokeColor=#10739e;" parent="IUQcIr59dXevHf2B69qS-1" vertex="1">
          <mxGeometry x="61.25" y="360" width="247.5" height="150" as="geometry" />
        </mxCell>
        <mxCell id="h1vEIMaagYIO03FBJauo-7" style="edgeStyle=orthogonalEdgeStyle;rounded=0;orthogonalLoop=1;jettySize=auto;html=1;entryX=0.5;entryY=0;entryDx=0;entryDy=0;" parent="IUQcIr59dXevHf2B69qS-1" source="WIyWlLk6GJQsqaUBKTNV-3" target="h1vEIMaagYIO03FBJauo-6" edge="1">
          <mxGeometry relative="1" as="geometry" />
        </mxCell>
      </root>
    </mxGraphModel>
  </diagram>
</mxfile>
